<?xml version="1.0" encoding="UTF-8" standalone="no"?><!-- Generator: Gravit.io --><svg xmlns="http://www.w3.org/2000/svg" xmlns:xlink="http://www.w3.org/1999/xlink" style="isolation:isolate" viewBox="28.045 7.782 37.911 37.911" width="37.911pt" height="37.911pt"><linearGradient id="_lgradient_0" x1="-0.21164021164021227" y1="0.7514886302328024" x2="0.9890652557319217" y2="0.43517576887991016" gradientTransform="matrix(-37.911,-37.911,-37.911,37.911,84.911,26.737)" gradientUnits="userSpaceOnUse"><stop offset="0%" stop-opacity="1" style="stop-color:rgb(200,117,255)"/><stop offset="97.82608695652173%" stop-opacity="1" style="stop-color:rgb(255,0,255)"/></linearGradient><path d=" M 53.173 26.737 L 64.678 38.242 C 66.381 39.945 66.381 42.711 64.678 44.415 L 64.678 44.415 C 62.974 46.118 60.208 46.118 58.505 44.415 L 47 32.91 L 35.495 44.415 C 33.792 46.118 31.026 46.118 29.322 44.415 L 29.322 44.415 C 27.619 42.711 27.619 39.945 29.322 38.242 L 40.827 26.737 L 29.322 15.233 C 27.619 13.529 27.619 10.763 29.322 9.06 L 29.322 9.06 C 31.026 7.356 33.792 7.356 35.495 9.06 L 47 20.564 L 58.505 9.06 C 60.208 7.356 62.974 7.356 64.678 9.06 L 64.678 9.06 C 66.381 10.763 66.381 13.529 64.678 15.233 L 53.173 26.737 Z " fill-rule="evenodd" fill="url(#_lgradient_0)"/></svg>