<?xml version="1.0" encoding="UTF-8" standalone="no"?><!-- Generator: Gravit.io --><svg xmlns="http://www.w3.org/2000/svg" xmlns:xlink="http://www.w3.org/1999/xlink" style="isolation:isolate" viewBox="315.5 3 54 54" width="54pt" height="54pt"><g><defs><filter id="RxRNoCr8Rzrt6Q9Mi0orSQVGwX9QptnA" x="-200%" y="-200%" width="400%" height="400%" filterUnits="objectBoundingBox" color-interpolation-filters="sRGB"><feGaussianBlur xmlns="http://www.w3.org/2000/svg" in="SourceGraphic" stdDeviation="2.146804531419514"/><feOffset xmlns="http://www.w3.org/2000/svg" dx="0" dy="0" result="pf_100_offsetBlur"/><feFlood xmlns="http://www.w3.org/2000/svg" flood-color="#FFFFFF" flood-opacity="0.65"/><feComposite xmlns="http://www.w3.org/2000/svg" in2="pf_100_offsetBlur" operator="in" result="pf_100_dropShadow"/><feBlend xmlns="http://www.w3.org/2000/svg" in="SourceGraphic" in2="pf_100_dropShadow" mode="normal"/></filter></defs><g filter="url(#RxRNoCr8Rzrt6Q9Mi0orSQVGwX9QptnA)"><path d="M 342.5 10 L 342.5 10 C 353.538 10 362.5 18.962 362.5 30 L 362.5 30 C 362.5 41.038 353.538 50 342.5 50 L 342.5 50 C 331.462 50 322.5 41.038 322.5 30 L 322.5 30 C 322.5 18.962 331.462 10 342.5 10 Z" style="stroke:none;fill:#FFFFFF;stroke-miterlimit:10;"/></g><defs><filter id="TRTN7YGb5p93DDKLpdr3OXV6hbmakjIe" x="-200%" y="-200%" width="400%" height="400%" filterUnits="objectBoundingBox" color-interpolation-filters="sRGB"><feGaussianBlur xmlns="http://www.w3.org/2000/svg" in="SourceGraphic" stdDeviation="2.146804531419514"/><feOffset xmlns="http://www.w3.org/2000/svg" dx="0" dy="0" result="pf_100_offsetBlur"/><feFlood xmlns="http://www.w3.org/2000/svg" flood-color="#FFFFFF" flood-opacity="0.65"/><feComposite xmlns="http://www.w3.org/2000/svg" in2="pf_100_offsetBlur" operator="in" result="pf_100_dropShadow"/><feBlend xmlns="http://www.w3.org/2000/svg" in="SourceGraphic" in2="pf_100_dropShadow" mode="normal"/></filter></defs><g filter="url(#TRTN7YGb5p93DDKLpdr3OXV6hbmakjIe)"><path d="M 342.5 10 L 342.5 10 C 353.538 10 362.5 18.962 362.5 30 L 362.5 30 C 362.5 41.038 353.538 50 342.5 50 L 342.5 50 C 331.462 50 322.5 41.038 322.5 30 L 322.5 30 C 322.5 18.962 331.462 10 342.5 10 Z" style="stroke:none;fill:#FFFFFF;stroke-miterlimit:10;"/></g><path d=" M 342.5 26.408 L 335.092 19.001 C 334.101 18.009 332.492 18.009 331.501 19.001 L 331.501 19.001 C 330.509 19.992 330.509 21.601 331.501 22.592 L 338.908 30 L 331.501 37.408 C 330.509 38.399 330.509 40.008 331.501 40.999 L 331.501 40.999 C 332.492 41.991 334.101 41.991 335.092 40.999 L 342.5 33.592 L 349.908 40.999 C 350.899 41.991 352.508 41.991 353.499 40.999 L 353.499 40.999 C 354.491 40.008 354.491 38.399 353.499 37.408 L 346.092 30 L 353.499 22.592 C 354.491 21.601 354.491 19.992 353.499 19.001 L 353.499 19.001 C 352.508 18.009 350.899 18.009 349.908 19.001 L 342.5 26.408 Z " fill-rule="evenodd" fill="rgb(255,0,72)"/></g></svg>