<?xml version="1.0" encoding="UTF-8" standalone="no"?><!-- Generator: Gravit.io --><svg xmlns="http://www.w3.org/2000/svg" xmlns:xlink="http://www.w3.org/1999/xlink" style="isolation:isolate" viewBox="326.365 445 48.635 58" width="48.635pt" height="58pt"><g><linearGradient id="_lgradient_1" x1="0.19810839471255637" y1="0.3099415204678353" x2="1.0070341368884872" y2="1.0060531445572987" gradientTransform="matrix(48.635,0,0,57,326.365,446)" gradientUnits="userSpaceOnUse"><stop offset="0%" stop-opacity="1" style="stop-color:rgb(153,0,255)"/><stop offset="99.1304347826087%" stop-opacity="1" style="stop-color:rgb(255,0,255)"/></linearGradient><path d=" M 375 503 L 354.865 503 C 339.135 503 326.365 490.23 326.365 474.5 L 326.365 474.5 C 326.365 458.77 339.135 446 354.865 446 L 375 446 L 375 503 L 375 503 Z " fill="url(#_lgradient_1)"/><path d=" M 366.824 472.871 L 366.824 472.871 L 366.824 472.871 Q 366.824 480.02 362.889 483.887 L 362.889 483.887 L 362.889 483.887 Q 358.953 487.754 351.824 487.754 L 351.824 487.754 L 342.586 487.754 L 342.586 459.199 L 352.469 459.199 L 352.469 459.199 Q 359.344 459.199 363.084 462.715 L 363.084 462.715 L 363.084 462.715 Q 366.824 466.23 366.824 472.871 Z  M 358.816 473.145 L 358.816 473.145 L 358.816 473.145 Q 358.816 469.219 357.264 467.324 L 357.264 467.324 L 357.264 467.324 Q 355.711 465.43 352.547 465.43 L 352.547 465.43 L 350.301 465.43 L 350.301 481.426 L 352.02 481.426 L 352.02 481.426 Q 355.535 481.426 357.176 479.385 L 357.176 479.385 L 357.176 479.385 Q 358.816 477.344 358.816 473.145 Z " fill="rgb(232,232,232)"/></g></svg>