<?xml version="1.0" encoding="UTF-8" standalone="no"?><!-- Generator: Gravit.io --><svg xmlns="http://www.w3.org/2000/svg" xmlns:xlink="http://www.w3.org/1999/xlink" style="isolation:isolate" viewBox="337.364 6.044 27.636 19.739" width="27.636pt" height="19.739pt"><path d=" M 343.368 6.044 L 363.632 6.044 C 364.387 6.044 365 6.657 365 7.413 L 365 7.676 C 365 8.431 364.387 9.044 363.632 9.044 L 343.368 9.044 C 342.613 9.044 342 8.431 342 7.676 L 342 7.413 C 342 6.657 342.613 6.044 343.368 6.044 L 343.368 6.044 Z  M 347.462 14.414 L 363.5 14.414 C 364.328 14.414 365 15.086 365 15.914 L 365 15.914 C 365 16.742 364.328 17.414 363.5 17.414 L 347.462 17.414 C 346.634 17.414 345.962 16.742 345.962 15.914 L 345.962 15.914 C 345.962 15.086 346.634 14.414 347.462 14.414 L 347.462 14.414 Z  M 338.864 22.783 L 363.5 22.783 C 364.328 22.783 365 23.455 365 24.283 L 365 24.283 C 365 25.111 364.328 25.783 363.5 25.783 L 338.864 25.783 C 338.036 25.783 337.364 25.111 337.364 24.283 L 337.364 24.283 C 337.364 23.455 338.036 22.783 338.864 22.783 Z " fill-rule="evenodd" fill="rgb(255,153,0)"/></svg>