<?xml version="1.0" encoding="UTF-8" standalone="no"?><!-- Generator: Gravit.io --><svg xmlns="http://www.w3.org/2000/svg" xmlns:xlink="http://www.w3.org/1999/xlink" style="isolation:isolate" viewBox="326.365 302 48.635 57" width="48.635pt" height="57pt"><g><linearGradient id="_lgradient_1" x1="0.19810839471255637" y1="0.3099415204678353" x2="1.0070341368884872" y2="1.0060531445572987" gradientTransform="matrix(48.635,0,0,57,326.365,302)" gradientUnits="userSpaceOnUse"><stop offset="0%" stop-opacity="1" style="stop-color:rgb(153,0,255)"/><stop offset="99.1304347826087%" stop-opacity="1" style="stop-color:rgb(255,0,255)"/></linearGradient><path d=" M 375 359 L 354.865 359 C 339.135 359 326.365 346.23 326.365 330.5 L 326.365 330.5 C 326.365 314.77 339.135 302 354.865 302 L 375 302 L 375 359 L 375 359 Z " fill="url(#_lgradient_1)"/><path d=" M 357.116 322.058 L 357.116 312.491 L 343.046 312.491 C 342.111 312.491 341.358 313.243 341.358 314.179 L 341.358 346.821 C 341.358 347.757 342.111 348.509 343.046 348.509 L 366.684 348.509 C 367.619 348.509 368.372 347.757 368.372 346.821 L 368.372 323.747 L 358.805 323.747 C 357.876 323.747 357.116 322.987 357.116 322.058 Z  M 361.618 338.66 C 361.618 339.125 361.239 339.505 360.774 339.505 L 348.956 339.505 C 348.491 339.505 348.112 339.125 348.112 338.66 L 348.112 338.098 C 348.112 337.633 348.491 337.253 348.956 337.253 L 360.774 337.253 C 361.239 337.253 361.618 337.633 361.618 338.098 L 361.618 338.66 Z  M 361.618 334.158 C 361.618 334.622 361.239 335.002 360.774 335.002 L 348.956 335.002 C 348.491 335.002 348.112 334.622 348.112 334.158 L 348.112 333.595 C 348.112 333.131 348.491 332.751 348.956 332.751 L 360.774 332.751 C 361.239 332.751 361.618 333.131 361.618 333.595 L 361.618 334.158 Z  M 361.618 329.093 L 361.618 329.656 C 361.618 330.12 361.239 330.5 360.774 330.5 L 348.956 330.5 C 348.491 330.5 348.112 330.12 348.112 329.656 L 348.112 329.093 C 348.112 328.629 348.491 328.249 348.956 328.249 L 360.774 328.249 C 361.239 328.249 361.618 328.629 361.618 329.093 Z  M 368.372 321.066 L 368.372 321.495 L 359.367 321.495 L 359.367 312.491 L 359.796 312.491 C 360.247 312.491 360.676 312.667 360.992 312.983 L 367.879 319.877 C 368.196 320.194 368.372 320.623 368.372 321.066 Z " fill="rgb(255,255,255)"/></g></svg>