<?xml version="1.0" encoding="UTF-8" standalone="no"?><!-- Generator: Gravit.io --><svg xmlns="http://www.w3.org/2000/svg" xmlns:xlink="http://www.w3.org/1999/xlink" style="isolation:isolate" viewBox="60.5 321.333 254 169.333" width="254pt" height="169.333pt"><path d=" M 310.945 400.668 L 264.339 330.759 C 260.413 324.87 253.805 321.333 246.727 321.333 L 128.273 321.333 C 121.196 321.333 114.587 324.87 110.661 330.759 L 64.055 400.668 C 61.737 404.145 60.5 408.23 60.5 412.409 L 60.5 469.5 C 60.5 481.19 69.976 490.667 81.667 490.667 L 293.333 490.667 C 305.024 490.667 314.5 481.19 314.5 469.5 L 314.5 412.409 C 314.5 408.23 313.263 404.145 310.945 400.668 L 310.945 400.668 Z  M 132.049 349.556 L 242.952 349.556 L 280.581 406 L 226.306 406 L 212.194 434.222 L 162.806 434.222 L 148.694 406 L 94.419 406 L 132.049 349.556 Z " fill="rgb(255,255,255)"/></svg>