<?xml version="1.0" encoding="UTF-8" standalone="no"?><!-- Generator: Gravit.io --><svg xmlns="http://www.w3.org/2000/svg" xmlns:xlink="http://www.w3.org/1999/xlink" style="isolation:isolate" viewBox="319.5 173 46 46" width="46pt" height="46pt"><g><path d="M 342.5 173 L 342.5 173 C 355.194 173 365.5 183.306 365.5 196 L 365.5 196 C 365.5 208.694 355.194 219 342.5 219 L 342.5 219 C 329.806 219 319.5 208.694 319.5 196 L 319.5 196 C 319.5 183.306 329.806 173 342.5 173 Z" style="stroke:none;fill:#EBEBEB;stroke-miterlimit:10;"/><path d=" M 357.008 185.265 C 353.257 182.068 347.679 182.643 344.236 186.196 L 342.888 187.585 L 341.539 186.196 C 338.104 182.643 332.518 182.068 328.768 185.265 C 324.469 188.933 324.243 195.518 328.09 199.494 L 341.334 213.17 C 342.19 214.053 343.579 214.053 344.435 213.17 L 357.679 199.494 C 361.532 195.518 361.306 188.933 357.008 185.265 Z " fill="rgb(255,0,102)"/></g></svg>