<?xml version="1.0" encoding="UTF-8" standalone="no"?><!-- Generator: Gravit.io --><svg xmlns="http://www.w3.org/2000/svg" xmlns:xlink="http://www.w3.org/1999/xlink" style="isolation:isolate" viewBox="4 3.127 47 47.746" width="47pt" height="47.746pt"><g><path d="M 27.5 3.127 L 27.5 3.127 C 40.47 3.127 51 13.657 51 26.627 L 51 27.373 C 51 40.343 40.47 50.873 27.5 50.873 L 27.5 50.873 C 14.53 50.873 4 40.343 4 27.373 L 4 26.627 C 4 13.657 14.53 3.127 27.5 3.127 Z" style="stroke:none;fill:#FFFFFF;stroke-miterlimit:10;opacity:0.37;"/><path d="M 27.334 5.727 L 27.666 5.727 C 39.315 5.727 48.772 15.184 48.772 26.833 L 48.772 27.167 C 48.772 38.816 39.315 48.273 27.666 48.273 L 27.334 48.273 C 15.685 48.273 6.228 38.816 6.228 27.167 L 6.228 26.833 C 6.228 15.184 15.685 5.727 27.334 5.727 Z" style="stroke:none;fill:#FFFFFF;stroke-miterlimit:10;"/><g><path d=" M 48.568 26.955 C 48.568 38.59 39.135 48.023 27.5 48.023 C 15.865 48.023 6.432 38.59 6.432 26.955 C 6.432 15.32 15.865 5.887 27.5 5.887 C 39.135 5.887 48.568 15.32 48.568 26.955 L 48.568 26.955 Z " fill="rgb(255,139,0)"/><path d=" M 27.5 5.887 L 27.5 48.023 C 39.135 48.023 48.568 38.591 48.568 26.955 C 48.568 15.32 39.135 5.887 27.5 5.887 L 27.5 5.887 Z " fill="rgb(237,80,10)"/><path d=" M 9.704 15.675 C 7.633 18.936 6.432 22.805 6.432 26.955 C 6.432 38.59 15.865 48.023 27.5 48.023 C 34.995 48.023 41.576 44.108 45.31 38.212 L 9.704 15.675 Z " fill="rgb(110,110,110)"/><path d=" M 27.506 26.943 L 9.704 15.675 C 7.633 18.936 6.432 22.805 6.432 26.955 C 6.432 31.265 7.728 35.272 9.949 38.61 L 27.506 26.943 Z " fill="rgb(255,163,0)"/><path d=" M 9.704 15.675 C 7.633 18.936 6.432 22.805 6.432 26.955 C 6.432 28.478 6.595 29.962 6.902 31.394 L 27.51 26.945 L 9.704 15.675 Z " fill="rgb(255,227,220)"/><path d=" M 9.704 15.675 C 7.633 18.936 6.432 22.805 6.432 26.955 L 27.525 26.955 L 9.704 15.675 Z " fill="rgb(255,197,13)"/><path d=" M 29.49 5.981 C 38.319 8.491 44.786 16.615 44.786 26.249 C 44.786 36.593 37.331 45.195 27.5 46.977 L 27.5 48.023 C 39.135 48.023 48.568 38.59 48.568 26.955 C 48.568 15.991 40.192 6.984 29.49 5.981 L 29.49 5.981 Z " fill="rgb(219,51,23)"/><path d=" M 42.251 36.276 C 38.686 42.851 31.723 47.316 23.718 47.316 C 23.047 47.316 22.383 47.284 21.728 47.222 C 23.562 47.744 25.499 48.023 27.5 48.023 C 34.995 48.023 41.576 44.108 45.31 38.212 L 42.251 36.276 Z " fill="rgb(92,92,92)"/><g><path d=" M 29.558 49.157 L 22.697 49.157 C 22.289 49.157 21.957 48.826 21.957 48.418 L 21.957 46.165 L 30.298 46.165 L 30.298 48.418 C 30.298 48.826 29.967 49.157 29.558 49.157 Z " fill="rgb(255,197,13)"/><path d=" M 21.957 43.172 L 30.298 43.172 L 30.298 46.165 L 21.957 46.165 L 21.957 43.172 Z " fill="rgb(255,197,13)"/><path d=" M 21.957 40.179 L 30.298 40.179 L 30.298 43.172 L 21.957 43.172 L 21.957 40.179 Z " fill="rgb(255,197,13)"/><path d=" M 30.298 40.179 L 21.957 40.179 L 21.957 37.926 C 21.957 37.517 22.289 37.187 22.697 37.187 L 29.558 37.187 C 29.967 37.187 30.298 37.517 30.298 37.926 L 30.298 40.179 Z " fill="rgb(255,197,13)"/></g><path d=" M 28.041 46.165 L 28.041 47.44 C 28.041 47.874 27.69 48.225 27.256 48.225 L 21.957 48.225 L 21.957 48.299 C 21.957 48.773 22.342 49.157 22.816 49.157 L 29.44 49.157 C 29.914 49.157 30.298 48.773 30.298 48.299 L 30.298 46.165 L 28.041 46.165 Z " fill="rgb(255,163,0)"/><path d=" M 28.041 43.172 L 28.041 44.447 C 28.041 44.881 27.69 45.232 27.256 45.232 L 21.957 45.232 L 21.957 46.165 L 30.298 46.165 L 30.298 43.172 L 28.041 43.172 Z " fill="rgb(255,163,0)"/><path d=" M 28.041 40.179 L 28.041 41.455 C 28.041 41.888 27.69 42.24 27.256 42.24 L 21.957 42.24 L 21.957 43.172 L 30.298 43.172 L 30.298 40.179 L 28.041 40.179 Z " fill="rgb(255,163,0)"/><path d=" M 46.239 49.157 L 39.377 49.157 C 38.969 49.157 38.638 48.826 38.638 48.418 L 38.638 46.165 L 46.978 46.165 L 46.978 48.418 C 46.978 48.826 46.647 49.157 46.239 49.157 L 46.239 49.157 Z " fill="rgb(255,197,13)"/><path d=" M 38.638 43.172 L 46.978 43.172 L 46.978 46.165 L 38.638 46.165 L 38.638 43.172 Z " fill="rgb(255,197,13)"/><path d=" M 44.721 46.165 L 44.721 47.44 C 44.721 47.874 44.37 48.225 43.937 48.225 L 38.638 48.225 L 38.638 48.299 C 38.638 48.773 39.022 49.157 39.496 49.157 L 46.12 49.157 C 46.594 49.157 46.978 48.773 46.978 48.299 L 46.978 46.165 L 44.721 46.165 Z " fill="rgb(255,163,0)"/><path d=" M 44.721 43.172 L 44.721 44.447 C 44.721 44.881 44.37 45.232 43.937 45.232 L 38.638 45.232 L 38.638 46.165 L 46.978 46.165 L 46.978 43.172 L 44.721 43.172 Z " fill="rgb(255,163,0)"/><path d=" M 29.44 37.187 L 28.041 37.187 L 28.041 38.462 C 28.041 38.896 27.69 39.247 27.256 39.247 L 21.957 39.247 L 21.957 40.179 L 30.298 40.179 L 30.298 38.045 C 30.298 37.571 29.914 37.187 29.44 37.187 L 29.44 37.187 Z " fill="rgb(255,163,0)"/><path d=" M 46.978 43.172 L 38.638 43.172 L 38.638 40.918 C 38.638 40.51 38.969 40.179 39.377 40.179 L 46.239 40.179 C 46.647 40.179 46.978 40.51 46.978 40.918 L 46.978 43.172 Z " fill="rgb(255,197,13)"/><path d=" M 46.12 40.179 L 44.721 40.179 L 44.721 41.455 C 44.721 41.888 44.37 42.24 43.937 42.24 L 38.638 42.24 L 38.638 43.172 L 46.978 43.172 L 46.978 41.037 C 46.978 40.563 46.594 40.179 46.12 40.179 L 46.12 40.179 Z " fill="rgb(255,163,0)"/><path d=" M 37.899 49.157 L 31.037 49.157 C 30.629 49.157 30.298 48.826 30.298 48.418 L 30.298 46.165 L 38.638 46.165 L 38.638 48.418 C 38.638 48.826 38.307 49.157 37.899 49.157 L 37.899 49.157 Z " fill="rgb(255,197,13)"/><path d=" M 30.298 43.172 L 38.638 43.172 L 38.638 46.165 L 30.298 46.165 L 30.298 43.172 Z " fill="rgb(255,197,13)"/><path d=" M 30.298 40.179 L 38.638 40.179 L 38.638 43.172 L 30.298 43.172 L 30.298 40.179 Z " fill="rgb(255,197,13)"/><path d=" M 36.381 46.165 L 36.381 47.44 C 36.381 47.874 36.03 48.225 35.596 48.225 L 30.298 48.225 L 30.298 48.299 C 30.298 48.773 30.682 49.157 31.156 49.157 L 37.78 49.157 C 38.254 49.157 38.638 48.773 38.638 48.299 L 38.638 46.165 L 36.381 46.165 Z " fill="rgb(255,163,0)"/><path d=" M 36.381 43.172 L 36.381 44.447 C 36.381 44.881 36.03 45.232 35.596 45.232 L 30.298 45.232 L 30.298 46.165 L 38.638 46.165 L 38.638 43.172 L 36.381 43.172 Z " fill="rgb(255,163,0)"/><path d=" M 36.381 40.179 L 36.381 41.455 C 36.381 41.888 36.03 42.24 35.596 42.24 L 30.298 42.24 L 30.298 43.172 L 38.638 43.172 L 38.638 40.179 L 36.381 40.179 Z " fill="rgb(255,163,0)"/><path d=" M 30.298 37.187 L 38.638 37.187 L 38.638 40.179 L 30.298 40.179 L 30.298 37.187 Z " fill="rgb(255,197,13)"/><path d=" M 36.381 37.187 L 36.381 38.462 C 36.381 38.896 36.03 39.247 35.596 39.247 L 30.298 39.247 L 30.298 40.179 L 38.638 40.179 L 38.638 37.187 L 36.381 37.187 Z " fill="rgb(255,163,0)"/><path d=" M 30.298 34.194 L 38.638 34.194 L 38.638 37.187 L 30.298 37.187 L 30.298 34.194 Z " fill="rgb(255,197,13)"/><path d=" M 38.638 34.194 L 30.298 34.194 L 30.298 31.94 C 30.298 31.532 30.629 31.201 31.037 31.201 L 37.899 31.201 C 38.307 31.201 38.638 31.532 38.638 31.94 L 38.638 34.194 Z " fill="rgb(255,197,13)"/><path d=" M 36.381 34.194 L 36.381 35.469 C 36.381 35.903 36.03 36.254 35.596 36.254 L 30.298 36.254 L 30.298 37.187 L 38.638 37.187 L 38.638 34.194 L 36.381 34.194 Z " fill="rgb(255,163,0)"/><path d=" M 37.78 31.201 L 36.381 31.201 L 36.381 32.477 C 36.381 32.91 36.03 33.261 35.596 33.261 L 30.298 33.261 L 30.298 34.194 L 38.638 34.194 L 38.638 32.059 C 38.638 31.585 38.254 31.201 37.78 31.201 Z " fill="rgb(255,163,0)"/></g></g></svg>