<?xml version="1.0" encoding="UTF-8" standalone="no"?><!-- Generator: Gravit.io --><svg xmlns="http://www.w3.org/2000/svg" xmlns:xlink="http://www.w3.org/1999/xlink" style="isolation:isolate" viewBox="24.365 377.5 48.635 57" width="48.635pt" height="57pt"><g><g><linearGradient id="_lgradient_0" x1="0.19810839471255637" y1="0.3099415204678353" x2="1.0070341368884872" y2="1.0060531445572987" gradientTransform="matrix(48.635,0,0,57,24.365,377.5)" gradientUnits="userSpaceOnUse"><stop offset="0%" stop-opacity="1" style="stop-color:rgb(153,0,255)"/><stop offset="99.1304347826087%" stop-opacity="1" style="stop-color:rgb(255,0,255)"/></linearGradient><path d=" M 73 434.5 L 52.865 434.5 C 37.135 434.5 24.365 421.73 24.365 406 L 24.365 406 C 24.365 390.27 37.135 377.5 52.865 377.5 L 73 377.5 L 73 434.5 L 73 434.5 Z " fill="url(#_lgradient_0)"/><path d=" M 59.538 393.145 C 59.443 393.227 59.35 393.311 59.26 393.401 L 52.898 399.763 L 46.535 393.401 C 46.393 393.258 46.241 393.13 46.077 393.026 C 45.452 392.389 44.58 392 43.618 392 L 43.618 392 C 41.686 392 40.118 393.568 40.117 395.499 L 40.113 416.499 C 40.112 418.431 41.68 419.999 43.612 420 L 43.612 420 C 45.544 420 47.112 418.432 47.113 416.501 L 47.115 403.88 L 50.26 407.025 C 51.029 407.793 52.066 408.13 53.071 408.039 C 53.964 408.047 54.855 407.705 55.535 407.025 L 58.615 403.945 L 58.613 416.499 C 58.612 418.431 60.18 420 62.112 420 L 62.112 420 C 64.044 420 65.612 418.432 65.613 416.501 L 65.617 395.501 C 65.618 393.569 64.05 392 62.118 392 L 62.118 392 C 61.095 392 60.173 392.44 59.538 393.145 Z " fill-rule="evenodd" fill="rgb(235,235,235)"/></g></g></svg>