<?xml version="1.0" encoding="UTF-8" standalone="no"?><!-- Generator: Gravit.io --><svg xmlns="http://www.w3.org/2000/svg" xmlns:xlink="http://www.w3.org/1999/xlink" style="isolation:isolate" viewBox="326.365 517 48.635 57" width="48.635pt" height="57pt"><g><linearGradient id="_lgradient_0" x1="0.19810839471255637" y1="0.3099415204678353" x2="1.0070341368884872" y2="1.0060531445572987" gradientTransform="matrix(48.635,0,0,57,326.365,517)" gradientUnits="userSpaceOnUse"><stop offset="0%" stop-opacity="1" style="stop-color:rgb(153,0,255)"/><stop offset="99.1304347826087%" stop-opacity="1" style="stop-color:rgb(255,0,255)"/></linearGradient><path d=" M 375 574 L 354.865 574 C 339.135 574 326.365 561.23 326.365 545.5 L 326.365 545.5 C 326.365 529.77 339.135 517 354.865 517 L 375 517 L 375 574 L 375 574 Z " fill="url(#_lgradient_0)"/><path d=" M 352.971 526.97 L 352.323 563.964 C 342.962 562.875 335.831 554.813 336 545.176 C 336.168 535.539 343.577 527.731 352.971 526.97 Z  M 356.726 527.036 L 356.435 543.665 L 373.027 543.955 C 372.311 535.172 365.46 528.058 356.726 527.036 Z  M 356.369 547.401 L 356.078 564.03 C 364.861 563.314 371.939 556.444 372.961 547.691 L 356.369 547.401 Z " fill="rgb(255,255,255)"/></g></svg>