<?xml version="1.0" encoding="UTF-8" standalone="no"?><!-- Generator: Gravit.io --><svg xmlns="http://www.w3.org/2000/svg" xmlns:xlink="http://www.w3.org/1999/xlink" style="isolation:isolate" viewBox="322.157 90 40.426 40.428" width="40.426pt" height="40.428pt"><path d=" M 342.371 102.634 C 338.194 102.634 334.79 106.037 334.79 110.214 C 334.79 114.391 338.194 117.794 342.371 117.794 C 346.548 117.794 349.951 114.391 349.951 110.214 C 349.951 106.037 346.548 102.634 342.371 102.634 Z  M 361.827 108.99 L 354.349 105.255 L 356.994 97.328 C 357.35 96.254 356.331 95.235 355.265 95.598 L 347.337 98.244 L 343.594 90.758 C 343.089 89.747 341.652 89.747 341.147 90.758 L 337.412 98.236 L 329.476 95.59 C 328.402 95.235 327.384 96.254 327.747 97.32 L 330.392 105.247 L 322.915 108.99 C 321.904 109.496 321.904 110.933 322.915 111.438 L 330.392 115.173 L 327.747 123.108 C 327.392 124.182 328.41 125.201 329.476 124.838 L 337.404 122.192 L 341.139 129.67 C 341.644 130.681 343.081 130.681 343.587 129.67 L 347.321 122.192 L 355.249 124.838 C 356.323 125.193 357.342 124.174 356.978 123.108 L 354.333 115.181 L 361.811 111.446 C 362.837 110.933 362.837 109.496 361.827 108.99 L 361.827 108.99 Z  M 349.517 117.36 C 345.576 121.3 339.165 121.3 335.225 117.36 C 331.284 113.42 331.284 107.008 335.225 103.068 C 339.165 99.128 345.576 99.128 349.517 103.068 C 353.457 107.008 353.457 113.42 349.517 117.36 Z " fill="rgb(255,255,0)"/></svg>