<?xml version="1.0" encoding="UTF-8" standalone="no"?><!-- Generator: Gravit.io --><svg xmlns="http://www.w3.org/2000/svg" xmlns:xlink="http://www.w3.org/1999/xlink" style="isolation:isolate" viewBox="115.505 574.005 36.99 36.99" width="36.99pt" height="36.99pt"><path d=" M 134 586.843 L 122.333 575.176 C 120.772 573.615 118.237 573.615 116.676 575.176 L 116.676 575.176 C 115.115 576.737 115.115 579.272 116.676 580.833 L 128.343 592.5 L 116.676 604.167 C 115.115 605.728 115.115 608.263 116.676 609.824 L 116.676 609.824 C 118.237 611.385 120.772 611.385 122.333 609.824 L 134 598.157 L 145.667 609.824 C 147.228 611.385 149.763 611.385 151.324 609.824 L 151.324 609.824 C 152.885 608.263 152.885 605.728 151.324 604.167 L 139.657 592.5 L 151.324 580.833 C 152.885 579.272 152.885 576.737 151.324 575.176 L 151.324 575.176 C 149.763 573.615 147.228 573.615 145.667 575.176 L 134 586.843 Z " fill-rule="evenodd" fill="rgb(255,0,72)"/></svg>