<?xml version="1.0" encoding="UTF-8" standalone="no"?><!-- Generator: Gravit.io --><svg xmlns="http://www.w3.org/2000/svg" xmlns:xlink="http://www.w3.org/1999/xlink" style="isolation:isolate" viewBox="6 105 30.543 34.906" width="30.543pt" height="34.906pt"><path d=" M 6 136.634 C 6 138.441 7.466 139.906 9.272 139.906 L 33.271 139.906 C 35.077 139.906 36.543 138.441 36.543 136.634 L 36.543 118.09 L 6 118.09 L 6 136.634 Z  M 27.816 123.271 C 27.816 122.821 28.185 122.453 28.635 122.453 L 31.362 122.453 C 31.812 122.453 32.18 122.821 32.18 123.271 L 32.18 125.998 C 32.18 126.448 31.812 126.816 31.362 126.816 L 28.635 126.816 C 28.185 126.816 27.816 126.448 27.816 125.998 L 27.816 123.271 Z  M 27.816 131.998 C 27.816 131.548 28.185 131.18 28.635 131.18 L 31.362 131.18 C 31.812 131.18 32.18 131.548 32.18 131.998 L 32.18 134.725 C 32.18 135.175 31.812 135.543 31.362 135.543 L 28.635 135.543 C 28.185 135.543 27.816 135.175 27.816 134.725 L 27.816 131.998 Z  M 19.09 123.271 C 19.09 122.821 19.458 122.453 19.908 122.453 L 22.635 122.453 C 23.085 122.453 23.453 122.821 23.453 123.271 L 23.453 125.998 C 23.453 126.448 23.085 126.816 22.635 126.816 L 19.908 126.816 C 19.458 126.816 19.09 126.448 19.09 125.998 L 19.09 123.271 Z  M 19.09 131.998 C 19.09 131.548 19.458 131.18 19.908 131.18 L 22.635 131.18 C 23.085 131.18 23.453 131.548 23.453 131.998 L 23.453 134.725 C 23.453 135.175 23.085 135.543 22.635 135.543 L 19.908 135.543 C 19.458 135.543 19.09 135.175 19.09 134.725 L 19.09 131.998 Z  M 10.363 123.271 C 10.363 122.821 10.731 122.453 11.181 122.453 L 13.908 122.453 C 14.358 122.453 14.727 122.821 14.727 123.271 L 14.727 125.998 C 14.727 126.448 14.358 126.816 13.908 126.816 L 11.181 126.816 C 10.731 126.816 10.363 126.448 10.363 125.998 L 10.363 123.271 Z  M 10.363 131.998 C 10.363 131.548 10.731 131.18 11.181 131.18 L 13.908 131.18 C 14.358 131.18 14.727 131.548 14.727 131.998 L 14.727 134.725 C 14.727 135.175 14.358 135.543 13.908 135.543 L 11.181 135.543 C 10.731 135.543 10.363 135.175 10.363 134.725 L 10.363 131.998 Z  M 33.271 109.363 L 29.998 109.363 L 29.998 106.091 C 29.998 105.491 29.507 105 28.907 105 L 26.726 105 C 26.126 105 25.635 105.491 25.635 106.091 L 25.635 109.363 L 16.908 109.363 L 16.908 106.091 C 16.908 105.491 16.417 105 15.817 105 L 13.636 105 C 13.036 105 12.545 105.491 12.545 106.091 L 12.545 109.363 L 9.272 109.363 C 7.466 109.363 6 110.829 6 112.636 L 6 115.908 L 36.543 115.908 L 36.543 112.636 C 36.543 110.829 35.077 109.363 33.271 109.363 Z " fill="rgb(255,153,0)"/></svg>