<?xml version="1.0" encoding="UTF-8" standalone="no"?><!-- Generator: Gravit.io --><svg xmlns="http://www.w3.org/2000/svg" xmlns:xlink="http://www.w3.org/1999/xlink" style="isolation:isolate" viewBox="356 9.835 11 39" width="11pt" height="39pt"><path d=" M 356 15.335 C 356 12.299 358.464 9.835 361.5 9.835 C 364.536 9.835 367 12.299 367 15.335 C 367 18.37 364.536 20.835 361.5 20.835 C 358.464 20.835 356 18.37 356 15.335 L 356 15.335 Z  M 356 29.335 C 356 26.299 358.464 23.835 361.5 23.835 C 364.536 23.835 367 26.299 367 29.335 C 367 32.37 364.536 34.835 361.5 34.835 C 358.464 34.835 356 32.37 356 29.335 L 356 29.335 Z  M 356 43.335 C 356 40.299 358.464 37.835 361.5 37.835 C 364.536 37.835 367 40.299 367 43.335 C 367 46.37 364.536 48.835 361.5 48.835 C 358.464 48.835 356 46.37 356 43.335 Z " fill-rule="evenodd" fill="rgb(255,255,255)"/></svg>