<?xml version="1.0" encoding="UTF-8" standalone="no"?><!-- Generator: Gravit.io --><svg xmlns="http://www.w3.org/2000/svg" xmlns:xlink="http://www.w3.org/1999/xlink" style="isolation:isolate" viewBox="5 4.563 43 37.875" width="43pt" height="37.875pt"><g><path d=" M 42.932 13.25 L 12.406 13.25 C 11.698 13.25 11.125 12.677 11.125 11.969 C 11.125 11.261 11.698 10.688 12.406 10.688 L 43.156 10.688 C 43.864 10.688 44.437 10.114 44.437 9.406 C 44.437 7.283 42.717 5.563 40.594 5.563 L 11.125 5.563 C 8.294 5.563 6 7.857 6 10.688 L 6 36.313 C 6 39.143 8.294 41.438 11.125 41.438 L 42.932 41.438 C 45.176 41.438 47 39.713 47 37.594 L 47 17.094 C 47 14.974 45.176 13.25 42.932 13.25 Z  M 39.312 29.906 C 37.898 29.906 36.75 28.759 36.75 27.344 C 36.75 25.929 37.898 24.781 39.312 24.781 C 40.727 24.781 41.875 25.929 41.875 27.344 C 41.875 28.759 40.727 29.906 39.312 29.906 Z " fill="none" vector-effect="non-scaling-stroke" stroke-width="2" stroke="rgb(255,230,0)" stroke-linejoin="miter" stroke-linecap="butt" stroke-miterlimit="4"/><path d=" M 29.002 25.444 L 24.219 24.045 C 23.665 23.885 23.28 23.367 23.28 22.791 C 23.28 22.069 23.864 21.485 24.586 21.485 L 27.523 21.485 C 28.063 21.485 28.595 21.649 29.037 21.95 C 29.308 22.131 29.671 22.087 29.901 21.861 L 31.442 20.355 C 31.757 20.05 31.713 19.54 31.363 19.27 C 30.278 18.42 28.922 17.946 27.532 17.942 L 27.532 15.816 C 27.532 15.426 27.213 15.107 26.823 15.107 L 25.406 15.107 C 25.016 15.107 24.697 15.426 24.697 15.816 L 24.697 17.942 L 24.586 17.942 C 21.765 17.942 19.497 20.364 19.759 23.239 C 19.945 25.28 21.504 26.941 23.47 27.517 L 28.01 28.846 C 28.564 29.01 28.949 29.523 28.949 30.099 C 28.949 30.821 28.364 31.406 27.642 31.406 L 24.706 31.406 C 24.166 31.406 23.634 31.242 23.191 30.941 C 22.921 30.759 22.558 30.803 22.328 31.029 L 20.786 32.535 C 20.472 32.841 20.516 33.35 20.866 33.62 C 21.951 34.47 23.306 34.944 24.697 34.949 L 24.697 37.075 C 24.697 37.464 25.016 37.783 25.406 37.783 L 26.823 37.783 C 27.213 37.783 27.532 37.464 27.532 37.075 L 27.532 34.94 C 29.595 34.9 31.531 33.673 32.213 31.72 C 33.165 28.992 31.566 26.193 29.002 25.444 L 29.002 25.444 Z " fill="rgb(255,230,0)"/></g></svg>